<svg width="31" height="48" viewBox="0 0 31 48" fill="none" xmlns="http://www.w3.org/2000/svg">
<g clip-path="url(#clip0_2_249)">
<path d="M5.63748 47.7888C4.86045 47.423 4.52718 46.4956 4.89274 45.718C4.89274 45.7172 4.98289 45.5265 5.14955 45.1557C5.31541 44.7842 5.55527 44.2402 5.84268 43.5594C6.41757 42.1959 7.18633 40.2816 7.95292 38.0937C9.4905 33.7275 10.9961 28.2239 10.9855 24.0277C10.9855 23.5796 10.9696 23.1478 10.9356 22.7352C10.6644 19.226 8.65093 14.82 6.4135 11.0901C4.18503 7.34981 1.77225 4.24434 0.826377 3.07041C0.55572 2.73434 0.412455 2.56515 0.411709 2.56434C-0.143035 1.90843 -0.0608882 0.926229 0.595267 0.371751C1.25135 -0.183474 2.23196 -0.101256 2.7867 0.5554C2.81479 0.589414 5.38718 3.63358 8.07529 7.85826C10.7538 12.0997 13.5972 17.4574 14.0344 22.4805C14.0754 22.9873 14.0948 23.5039 14.0948 24.0277C14.0843 28.9104 12.4693 34.583 10.8874 39.1236C9.29982 43.6536 7.72099 47.0115 7.70654 47.0434C7.44159 47.6072 6.8825 47.9373 6.29893 47.9373C6.07698 47.9373 5.85156 47.8894 5.63748 47.7888Z" fill="white"/>
<path d="M23.2756 47.0431C23.262 47.0112 21.6822 43.654 20.0948 39.1233C18.5119 34.5827 16.8969 28.9101 16.8862 24.0282C16.8862 23.502 16.9064 22.9856 16.9477 22.4803C17.3854 17.4571 20.2291 12.1004 22.9074 7.85883C25.5963 3.63409 28.1679 0.589925 28.196 0.555164L28.1968 0.55591C28.751 -0.100746 29.7314 -0.182828 30.3877 0.371447C31.0428 0.926671 31.1256 1.90813 30.571 2.56485C30.571 2.5656 30.4268 2.73485 30.1565 3.07085C29.8859 3.40597 29.4954 3.89921 29.0246 4.51961C28.0825 5.76055 26.8148 7.51136 25.5306 9.52994C22.9518 13.553 20.3521 18.7197 20.0469 22.7357C20.0132 23.1498 19.9957 23.5817 19.9957 24.0281C19.9885 27.6959 21.1356 32.3766 22.4576 36.4063C23.7755 40.4431 25.2501 43.8565 25.8332 45.1554C25.999 45.527 26.089 45.7176 26.0901 45.7184C26.4557 46.496 26.1221 47.4226 25.3447 47.7893C25.1306 47.8899 24.9059 47.9378 24.6843 47.9378C24.1004 47.9377 23.5405 47.6068 23.2756 47.0431Z" fill="white"/>
<path d="M14.1411 13.8236L9.96282 6.50511C9.60168 5.87221 9.72581 5.07801 10.2623 4.58606L14.4407 0.75244C15.0355 0.205974 15.9466 0.205974 16.5414 0.75244L20.7197 4.58606C21.2561 5.07726 21.3802 5.87221 21.0192 6.50511L16.8408 13.8236C16.5653 14.3059 16.0464 14.6071 15.4911 14.6071C14.9362 14.6071 14.4167 14.3058 14.1411 13.8236ZM13.2789 6.04032L15.4907 9.91494L17.7033 6.03957L15.4911 4.00992L13.2789 6.04032Z" fill="white"/>
</g>
<defs>
<clipPath id="clip0_2_249">
<rect width="31" height="48" fill="white"/>
</clipPath>
</defs>
</svg>
